<svg width="25" height="25" viewBox="0 0 25 25" fill="none" xmlns="http://www.w3.org/2000/svg">
<path d="M4.98501 21.3734C4.78553 21.5729 4.56302 21.6726 4.3175 21.6726C4.08732 21.6573 3.87249 21.5499 3.673 21.3504C3.45817 21.1355 3.35075 20.9207 3.35075 20.7059C3.35075 20.4603 3.45049 20.2378 3.64998 20.0384C5.47606 18.243 7.57068 16.2711 9.93384 14.1228C12.2817 11.9591 13.6627 10.6855 14.077 10.3018C16.0719 8.52178 17.5758 7.14071 18.5885 6.15862C18.9108 5.83637 19.0259 5.62921 18.9338 5.53714C18.8724 5.47576 18.6499 5.49878 18.2663 5.60619C15.366 6.48087 12.9415 6.6957 10.9927 6.25069C10.7932 6.23535 10.6014 6.1356 10.4172 5.95146C10.187 5.72128 10.0643 5.41438 10.0489 5.03075C10.0336 4.61643 10.1333 4.30185 10.3482 4.08702C10.563 3.87218 10.8162 3.80313 11.1077 3.87986C12.8418 4.32487 14.4453 4.56272 15.9185 4.59341C17.3916 4.59341 18.8647 4.28651 20.3379 3.6727C20.7982 3.45787 21.1358 3.45787 21.3507 3.6727C21.5655 3.88753 21.5655 4.22513 21.3507 4.68548C20.7215 6.20466 20.3916 7.68547 20.3609 9.12792C20.3456 10.555 20.5834 12.0972 21.0745 13.7545C21.1819 14.1381 21.1205 14.445 20.8903 14.6752C20.6908 14.8747 20.3993 14.9668 20.0156 14.9514C19.632 14.9361 19.3174 14.8056 19.0719 14.5601C18.8878 14.376 18.765 14.1458 18.7036 13.8696C18.3046 12.0282 18.5655 9.63431 19.4862 6.68803C19.5936 6.3044 19.6167 6.08189 19.5553 6.02051C19.4632 5.92844 19.2637 6.03586 18.9568 6.34276C17.9287 7.40158 16.4939 8.95912 14.6525 11.0154C10.3251 15.7417 7.10265 19.1944 4.98501 21.3734Z" fill="#1E1E1E"/>
</svg>
