<svg width="76" height="50" viewBox="0 0 76 50" fill="none" xmlns="http://www.w3.org/2000/svg">
<path d="M2.77083 27.9564C1.91319 27.9564 1.22049 27.6892 0.692708 27.1547C0.230903 26.6202 0 25.9187 0 25.0501C0 24.1147 0.230903 23.4132 0.692708 22.9455C1.22049 22.411 1.91319 22.1438 2.77083 22.1438C10.5556 22.2106 19.2969 22.4778 28.9948 22.9455C38.6927 23.3464 44.3993 23.5802 46.1146 23.6471C54.2292 24.1147 60.4306 24.382 64.7188 24.4488C66.1042 24.4488 66.7969 24.2484 66.7969 23.8475C66.7969 23.5802 66.2691 23.146 65.2135 22.5447C57.099 18.1351 51.4254 13.3246 48.1927 8.11329C47.7969 7.64561 47.599 7.01089 47.599 6.20915C47.599 5.20697 47.9948 4.2716 48.7865 3.40305C49.6441 2.46768 50.5347 2 51.4583 2C52.382 2 53.0747 2.40087 53.5365 3.20261C56.3073 7.94626 59.2431 11.955 62.3438 15.2288C65.5104 18.4357 69.3368 20.9746 73.8229 22.8453C75.2743 23.3798 76 24.1147 76 25.0501C76 25.9855 75.2743 26.7204 73.8229 27.2549C69.2049 29.1924 65.3125 31.6979 62.1458 34.7712C59.0451 37.8446 56.2413 41.7197 53.7344 46.3965C53.1406 47.4655 52.349 48 51.3594 48C50.5017 48 49.6771 47.5657 48.8854 46.6972C48.0938 45.8286 47.6979 44.8598 47.6979 43.7908C47.6979 42.9891 47.9288 42.2208 48.3906 41.4858C51.4913 36.6086 57.1979 31.9651 65.5104 27.5556C66.566 26.9542 67.0938 26.52 67.0938 26.2527C67.0938 25.8519 66.434 25.6514 65.1146 25.6514C60.6285 25.7182 54.1962 25.9855 45.8177 26.4532C26.3559 27.3217 12.0069 27.8228 2.77083 27.9564Z" fill="#1E1E1E"/>
</svg>
