<svg width="38" height="25" viewBox="0 0 38 25" fill="none" xmlns="http://www.w3.org/2000/svg">
<path d="M36.6146 13.9782C37.0434 13.9782 37.3898 13.8446 37.6536 13.5773C37.8845 13.3101 38 12.9593 38 12.5251C38 12.0574 37.8845 11.7066 37.6536 11.4728C37.3898 11.2055 37.0434 11.0719 36.6146 11.0719C32.7222 11.1053 28.3516 11.2389 23.5026 11.4728C18.6536 11.6732 15.8003 11.7901 14.9427 11.8235C10.8854 12.0574 7.78472 12.191 5.64062 12.2244C4.94791 12.2244 4.60156 12.1242 4.60156 11.9237C4.60156 11.7901 4.86545 11.573 5.39323 11.2723C9.45052 9.06754 12.2873 6.66231 13.9036 4.05664C14.1016 3.8228 14.2005 3.50545 14.2005 3.10457C14.2005 2.60348 14.0026 2.1358 13.6068 1.70152C13.1779 1.23384 12.7326 1 12.2708 1C11.809 1 11.4627 1.20044 11.2318 1.60131C9.84635 3.97313 8.37847 5.97749 6.82812 7.61438C5.24479 9.21786 3.3316 10.4873 1.08854 11.4227C0.362846 11.6899 3.8147e-06 12.0574 3.8147e-06 12.5251C3.8147e-06 12.9927 0.362846 13.3602 1.08854 13.6275C3.39757 14.5962 5.34375 15.8489 6.92708 17.3856C8.47743 18.9223 9.87934 20.8598 11.1328 23.1983C11.4297 23.7328 11.8255 24 12.3203 24C12.7491 24 13.1615 23.7829 13.5573 23.3486C13.9531 22.9143 14.151 22.4299 14.151 21.8954C14.151 21.4946 14.0356 21.1104 13.8047 20.7429C12.2543 18.3043 9.40104 15.9826 5.24479 13.7778C4.71701 13.4771 4.45312 13.26 4.45312 13.1264C4.45312 12.9259 4.78298 12.8257 5.44271 12.8257C7.68576 12.8591 10.9019 12.9927 15.0911 13.2266C24.822 13.6609 31.9965 13.9114 36.6146 13.9782Z" fill="#1E1E1E"/>
</svg>
