<svg width="25" height="44" viewBox="0 0 25 44" fill="none" xmlns="http://www.w3.org/2000/svg">
<path d="M10.8932 2.50589C10.8932 2.03978 11.0385 1.66331 11.329 1.37647C11.6195 1.12549 12.0007 1 12.4728 1C12.9811 1 13.3624 1.12549 13.6166 1.37647C13.907 1.66331 14.0523 2.03978 14.0523 2.50589C14.016 6.73671 13.8707 11.4874 13.6166 16.758C13.3987 22.0286 13.2716 25.1301 13.2353 26.0623C12.9811 30.4724 12.8359 33.8427 12.7996 36.1732C12.7996 36.9262 12.9085 37.3027 13.1264 37.3027C13.2716 37.3027 13.5076 37.0158 13.8344 36.4421C16.2309 32.032 18.8453 28.9486 21.6776 27.1917C21.9317 26.9766 22.2767 26.869 22.7124 26.869C23.2571 26.869 23.7654 27.0841 24.2375 27.5144C24.7458 27.9805 25 28.4645 25 28.9665C25 29.4685 24.7821 29.8449 24.3464 30.0959C21.7683 31.6018 19.5897 33.1973 17.8105 34.8825C16.0675 36.6035 14.6877 38.683 13.671 41.1212C13.3805 41.91 12.9811 42.3043 12.4728 42.3043C11.9644 42.3043 11.565 41.91 11.2745 41.1212C10.2215 38.6113 8.85984 36.4959 7.18954 34.7749C5.51925 33.0898 3.41322 31.5659 0.87146 30.2035C0.290487 29.8808 0 29.4505 0 28.9127C0 28.4466 0.236023 27.9984 0.708063 27.5682C1.1801 27.1379 1.70661 26.9228 2.28758 26.9228C2.72331 26.9228 3.14089 27.0483 3.54031 27.2993C6.19099 28.9844 8.7146 32.0858 11.1111 36.6035C11.4379 37.1772 11.6739 37.464 11.8192 37.464C12.037 37.464 12.146 37.1055 12.146 36.3884C12.1097 33.9503 11.9644 30.4544 11.7102 25.9009C11.2382 15.3239 10.9659 7.52551 10.8932 2.50589Z" fill="#C1BAAF"/>
</svg>
