<svg width="25" height="25" viewBox="0 0 25 25" fill="none" xmlns="http://www.w3.org/2000/svg">
<path d="M13.4603 0.911458C13.4603 0.62934 13.3735 0.401476 13.1999 0.227865C13.0263 0.0759549 12.7984 0 12.5163 0C12.2125 0 11.9846 0.0759549 11.8327 0.227865C11.6591 0.401476 11.5723 0.62934 11.5723 0.911458C11.594 3.47222 11.6808 6.34766 11.8327 9.53776C11.9629 12.7279 12.0388 14.605 12.0605 15.1693C12.2125 17.8385 12.2993 19.8785 12.321 21.2891C12.321 21.7448 12.2559 21.9727 12.1257 21.9727C12.0388 21.9727 11.8978 21.799 11.7025 21.4518C10.2702 18.7826 8.70768 16.9162 7.01497 15.8529C6.86306 15.7227 6.6569 15.6576 6.39648 15.6576C6.07096 15.6576 5.76714 15.7878 5.48503 16.0482C5.18121 16.3303 5.0293 16.6233 5.0293 16.9271C5.0293 17.2309 5.1595 17.4588 5.41992 17.6107C6.96072 18.5221 8.2628 19.4879 9.32617 20.5078C10.3678 21.5495 11.1925 22.8082 11.8001 24.2839C11.9737 24.7613 12.2125 25 12.5163 25C12.8201 25 13.0588 24.7613 13.2324 24.2839C13.8618 22.7648 14.6756 21.4844 15.6738 20.4427C16.6721 19.4227 17.9308 18.5004 19.4499 17.6758C19.7971 17.4805 19.9707 17.2201 19.9707 16.8945C19.9707 16.6124 19.8296 16.3412 19.5475 16.0807C19.2654 15.8203 18.9507 15.6901 18.6035 15.6901C18.3431 15.6901 18.0935 15.7661 17.8548 15.918C16.2706 16.9379 14.7624 18.8151 13.3301 21.5495C13.1348 21.8967 12.9937 22.0703 12.9069 22.0703C12.7767 22.0703 12.7116 21.8533 12.7116 21.4193C12.7333 19.9436 12.8201 17.8277 12.972 15.0716C13.2541 8.66971 13.4169 3.94965 13.4603 0.911458Z" fill="#C1BAAF"/>
</svg>
